<svg width="32" height="32" viewBox="0 0 32 32" fill="none" xmlns="http://www.w3.org/2000/svg">
  <defs>
    <linearGradient id="gradient" x1="0%" y1="0%" x2="100%" y2="100%">
      <stop offset="0%" style="stop-color:#4F46E5;stop-opacity:1" />
      <stop offset="100%" style="stop-color:#7C3AED;stop-opacity:1" />
    </linearGradient>
  </defs>
  
  <!-- Background with rounded corners -->
  <rect width="32" height="32" rx="6" fill="url(#gradient)"/>
  
  <!-- Letter B -->
  <path d="M9 8h7c2.2 0 4 1.8 4 4 0 1.1-.4 2.1-1.1 2.8.7.7 1.1 1.7 1.1 2.8 0 2.2-1.8 4-4 4H9V8zm3 3v4h4c.6 0 1-.4 1-1s-.4-1-1-1h-4zm0 7v4h4c.6 0 1-.4 1-1s-.4-1-1-1h-4z" fill="white"/>
</svg>
