<svg width="128" height="128" viewBox="0 0 128 128" fill="none" xmlns="http://www.w3.org/2000/svg">
  <!-- Background circle with gradient -->
  <defs>
    <linearGradient id="grad1" x1="0%" y1="0%" x2="100%" y2="100%">
      <stop offset="0%" style="stop-color:#3B82F6;stop-opacity:1" />
      <stop offset="100%" style="stop-color:#1D4ED8;stop-opacity:1" />
    </linearGradient>
  </defs>
  
  <!-- Main circle background -->
  <circle cx="64" cy="64" r="60" fill="url(#grad1)"/>
  
  <!-- Dollar sign -->
  <path d="M64 25 L64 105 M45 40 C45 40 45 32 64 32 C83 32 83 40 83 40 C83 50 75 54 64 58 C53 62 45 66 45 76 C45 76 45 84 64 84 C83 84 83 76 83 76" 
        stroke="white" 
        stroke-width="6" 
        stroke-linecap="round" 
        stroke-linejoin="round" 
        fill="none"/>
  
  <!-- Subtle chart pattern -->
  <path d="M40 90 L48 82 L56 74 L72 58 L80 50 L88 42" 
        stroke="rgba(255,255,255,0.2)" 
        stroke-width="3" 
        stroke-linecap="round" 
        fill="none"/>
  
  <!-- Small dots for decoration -->
  <circle cx="35" cy="35" r="2" fill="rgba(255,255,255,0.3)"/>
  <circle cx="93" cy="35" r="2" fill="rgba(255,255,255,0.3)"/>
  <circle cx="35" cy="93" r="2" fill="rgba(255,255,255,0.3)"/>
  <circle cx="93" cy="93" r="2" fill="rgba(255,255,255,0.3)"/>
</svg> 