<svg width="320" height="80" viewBox="0 0 320 80" fill="none" xmlns="http://www.w3.org/2000/svg">
  <!-- Modern icon background -->
  <rect x="8" y="8" width="64" height="64" rx="16" fill="#3B82F6"/>
  
  <!-- Minimalist dollar sign -->
  <path d="M40 20 L40 60 M28 28 C28 28 28 24 40 24 C52 24 52 28 52 28 C52 32 48 34 40 36 C32 38 28 40 28 44 C28 44 28 48 40 48 C52 48 52 44 52 44" 
        stroke="white" 
        stroke-width="3" 
        stroke-linecap="round" 
        stroke-linejoin="round" 
        fill="none"/>
  
  <!-- Finance text with better spacing -->
  <text x="90" y="32" 
        font-family="Inter, -apple-system, BlinkMacSystemFont, system-ui, sans-serif" 
        font-size="24" 
        font-weight="800" 
        fill="#111827" 
        letter-spacing="-0.02em">Finance</text>
  
  <!-- PRO text -->
  <text x="90" y="56" 
        font-family="Inter, -apple-system, BlinkMacSystemFont, system-ui, sans-serif" 
        font-size="24" 
        font-weight="800" 
        fill="#3B82F6" 
        letter-spacing="-0.02em">PRO</text>
  
  <!-- Decorative line -->
  <rect x="240" y="20" width="4" height="40" rx="2" fill="#E5E7EB"/>
  
  <!-- Tagline -->
  <text x="260" y="36" 
        font-family="Inter, -apple-system, BlinkMacSystemFont, system-ui, sans-serif" 
        font-size="11" 
        font-weight="500" 
        fill="#6B7280" 
        letter-spacing="0.05em">GESTÃO</text>
        
  <text x="260" y="50" 
        font-family="Inter, -apple-system, BlinkMacSystemFont, system-ui, sans-serif" 
        font-size="11" 
        font-weight="500" 
        fill="#6B7280" 
        letter-spacing="0.05em">FINANCEIRA</text>
</svg> 